<svg xmlns="http://www.w3.org/2000/svg" viewBox="0 0 48 48" width="48" height="48">
  <rect width="48" height="48" rx="8" fill="#1a3a5c"/>
  <!-- Sun -->
  <circle cx="20" cy="16" r="6" fill="#f9d71c"/>
  <!-- Sun rays -->
  <line x1="20" y1="7" x2="20" y2="5" stroke="#f9d71c" stroke-width="2" stroke-linecap="round"/>
  <line x1="20" y1="25" x2="20" y2="27" stroke="#f9d71c" stroke-width="2" stroke-linecap="round"/>
  <line x1="11" y1="16" x2="9" y2="16" stroke="#f9d71c" stroke-width="2" stroke-linecap="round"/>
  <line x1="29" y1="16" x2="31" y2="16" stroke="#f9d71c" stroke-width="2" stroke-linecap="round"/>
  <line x1="13.6" y1="9.6" x2="12.2" y2="8.2" stroke="#f9d71c" stroke-width="2" stroke-linecap="round"/>
  <line x1="26.4" y1="22.4" x2="27.8" y2="23.8" stroke="#f9d71c" stroke-width="2" stroke-linecap="round"/>
  <line x1="26.4" y1="9.6" x2="27.8" y2="8.2" stroke="#f9d71c" stroke-width="2" stroke-linecap="round"/>
  <line x1="13.6" y1="22.4" x2="12.2" y2="23.8" stroke="#f9d71c" stroke-width="2" stroke-linecap="round"/>
  <!-- Cloud -->
  <ellipse cx="28" cy="30" rx="11" ry="7" fill="#ffffff"/>
  <ellipse cx="20" cy="32" rx="8" ry="6" fill="#ffffff"/>
  <ellipse cx="23" cy="26" rx="7" ry="6" fill="#ffffff"/>
  <!-- Rain drops -->
  <line x1="20" y1="39" x2="18" y2="43" stroke="#7ec8e3" stroke-width="2" stroke-linecap="round"/>
  <line x1="26" y1="39" x2="24" y2="43" stroke="#7ec8e3" stroke-width="2" stroke-linecap="round"/>
  <line x1="32" y1="39" x2="30" y2="43" stroke="#7ec8e3" stroke-width="2" stroke-linecap="round"/>
</svg>
